<svg viewBox="0 0 900 560" xmlns="http://www.w3.org/2000/svg" font-family="Helvetica, Arial, sans-serif">
  <rect width="900" height="560" fill="#ffffff" stroke="#bbbbbb" />

  <!-- header -->
  <rect x="30" y="24" width="140" height="20" rx="10" fill="none" stroke="#999999" />
  <text x="35" y="38" font-size="10" fill="#999999">NOW SHOWING</text>
  <rect x="30" y="56" width="220" height="28" fill="none" stroke="#333333" />
  <text x="38" y="75" font-size="16" fill="#333333">CineBook</text>
  <line x1="30" y1="98" x2="500" y2="98" stroke="#cccccc" stroke-dasharray="4 3" />

  <!-- movie card grid: 4 columns x 2 rows -->
  <g stroke="#999999" fill="none">
    <!-- row 1 -->
    <g transform="translate(30,130)">
      <rect width="190" height="260" />
      <rect x="10" y="10" width="170" height="220" stroke-dasharray="4 3" />
      <text x="65" y="105" font-size="9" fill="#aaaaaa">poster</text>
      <line x1="10" y1="245" x2="120" y2="245" stroke="#333333" />
      <line x1="10" y1="258" x2="90" y2="258" />
      <rect x="10" y="266" width="60" height="14" />
      <rect x="75" y="266" width="60" height="14" />
      <rect x="10" y="285" width="170" height="24" fill="#dddddd" stroke="none" />
      <text x="70" y="301" font-size="9" fill="#666666">Book Now</text>
    </g>
    <g transform="translate(240,130)">
      <rect width="190" height="260" />
      <rect x="10" y="10" width="170" height="220" stroke-dasharray="4 3" />
      <line x1="10" y1="245" x2="120" y2="245" stroke="#333333" />
      <line x1="10" y1="258" x2="90" y2="258" />
      <rect x="10" y="266" width="60" height="14" />
      <rect x="75" y="266" width="60" height="14" />
      <rect x="10" y="285" width="170" height="24" fill="#dddddd" stroke="none" />
      <text x="70" y="301" font-size="9" fill="#666666">Book Now</text>
    </g>
    <g transform="translate(450,130)">
      <rect width="190" height="260" />
      <rect x="10" y="10" width="170" height="220" stroke-dasharray="4 3" />
      <line x1="10" y1="245" x2="120" y2="245" stroke="#333333" />
      <line x1="10" y1="258" x2="90" y2="258" />
      <rect x="10" y="266" width="60" height="14" />
      <rect x="75" y="266" width="60" height="14" />
      <rect x="10" y="285" width="170" height="24" fill="#dddddd" stroke="none" />
      <text x="70" y="301" font-size="9" fill="#666666">Book Now</text>
    </g>
    <g transform="translate(660,130)">
      <rect width="190" height="260" />
      <rect x="10" y="10" width="170" height="220" stroke-dasharray="4 3" />
      <line x1="10" y1="245" x2="120" y2="245" stroke="#333333" />
      <line x1="10" y1="258" x2="90" y2="258" />
      <rect x="10" y="266" width="60" height="14" />
      <rect x="75" y="266" width="60" height="14" />
      <rect x="10" y="285" width="170" height="24" fill="#dddddd" stroke="none" />
      <text x="70" y="301" font-size="9" fill="#666666">Book Now</text>
    </g>

    <!-- row 2 (partial, indicates scroll continuation) -->
    <g transform="translate(30,410)">
      <rect width="190" height="120" stroke-dasharray="2 4" />
    </g>
    <g transform="translate(240,410)">
      <rect width="190" height="120" stroke-dasharray="2 4" />
    </g>
  </g>

  <text x="30" y="550" font-size="10" fill="#aaaaaa">Low-fidelity wireframe — movie listing grid (responsive: 2 / 3 / 4 columns)</text>
</svg>
